#Comment line ignore any data following # character 
#Hierarchical Translation and Rotation (.htr) file 
[Header]	
#Header keywords are followed by a single value 
FileType HTR		#Single word string
DataType HTRS		#Translation followed by rotation and scale data
FileVersion 1		#integer
NumSegments 64		#integer
NumFrames 3		#integer
DataFrameRate 30		#integer, data frame rate in this file
EulerRotationOrder ZYX
CalibrationUnits mm
RotationUnits Degrees
GlobalAxisofGravity Y
BoneLengthAxis Y
ScaleFactor 1.00
[SegmentNames&Hierarchy]
#CHILD	PARENT
Pinger_Root GLOBAL
Pelvis Pinger_Root
L_Hip Pelvis
R_Hip Pelvis
Rear_Leg01 Pelvis
Spine1 Pelvis
L_Leg01 L_Hip
L_Leg02 L_Leg01
L_Leg03 L_Leg02
L_Foot L_Leg03
L_Toe1_01 L_Foot
L_Toe2_01 L_Foot
L_Toe3_01 L_Foot
planeAlignerLeft L_Foot
L_Toe1_02 L_Toe1_01
L_Toe1_03 L_Toe1_02
L_Toe2_02 L_Toe2_01
L_Toe2_03 L_Toe2_02
L_Toe3_02 L_Toe3_01
L_Toe3_03 L_Toe3_02
planeLockWeightLeft planeAlignerLeft
R_Leg01 R_Hip
R_Leg02 R_Leg01
R_Leg03 R_Leg02
R_Foot R_Leg03
planeAlignerRight R_Foot
R_Toe1_01 R_Foot
R_Toe2_01 R_Foot
R_Toe3_01 R_Foot
planeLockWeightRight planeAlignerRight
R_Toe1_02 R_Toe1_01
R_Toe1_03 R_Toe1_02
R_Toe2_02 R_Toe2_01
R_Toe2_03 R_Toe2_02
R_Toe3_02 R_Toe3_01
R_Toe3_03 R_Toe3_02
Rear_Leg02 Rear_Leg01
Rear_Leg03 Rear_Leg02
Rear_Leg04 Rear_Leg03
Rear_Foot Rear_Leg04
planeAlignerCenter Rear_Foot
Rear_Toe1_01 Rear_Foot
Rear_Toe2_01 Rear_Foot
Rear_Toe3_01 Rear_Foot
planeLockWeightCenter planeAlignerCenter
Rear_Toe1_02 Rear_Toe1_01
Rear_Toe1_03 Rear_Toe1_02
Rear_Toe2_02 Rear_Toe2_01
Rear_Toe2_03 Rear_Toe2_02
Rear_Toe3_02 Rear_Toe3_01
Rear_Toe3_03 Rear_Toe3_02
Back_Bone Spine1
Head Spine1
Motor_Bone Back_Bone
Ping_Mechanism Back_Bone
BN_LookIK Head
bottomMouth Head
L_Mouth01 Head
L_mouthFront Head
mouthGun Head
R_Mouth01 Head
R_mouthFront Head
TopMouth Head
weapon_bone Head
[BasePosition]
#SegmentName Tx, Ty, Tz, Rx, Ry, Rz, BoneLength
Pinger_Root 0.000000 0.000000 0.000000 -90.000000 0.000000 0.000000 10.000000 
Pelvis 0.000000 0.000000 0.000000 0.000000 0.000000 0.000000 10.000000 
L_Hip 0.000000 0.000000 0.000000 0.000000 0.000000 0.000000 10.000000 
R_Hip 0.000000 0.000000 0.000000 0.000000 0.000000 0.000000 10.000000 
Rear_Leg01 0.000000 0.000000 0.000000 0.000000 0.000000 0.000000 10.000000 
Spine1 0.000000 0.000000 0.000000 0.000000 0.000000 0.000000 10.000000 
L_Leg01 0.000000 0.000000 0.000000 0.000000 0.000000 0.000000 10.000000 
L_Leg02 0.000000 0.000000 0.000000 0.000000 0.000000 0.000000 10.000000 
L_Leg03 0.000000 0.000000 0.000000 0.000000 0.000000 0.000000 10.000000 
L_Foot 0.000000 0.000000 0.000000 0.000000 0.000000 0.000000 10.000000 
L_Toe1_01 0.000000 0.000000 0.000000 0.000000 0.000000 0.000000 10.000000 
L_Toe2_01 0.000000 0.000000 0.000000 0.000000 0.000000 0.000000 10.000000 
L_Toe3_01 0.000000 0.000000 0.000000 0.000000 0.000000 0.000000 10.000000 
planeAlignerLeft 0.000000 0.000000 0.000000 0.000000 0.000000 0.000000 10.000000 
L_Toe1_02 0.000000 0.000000 0.000000 0.000000 0.000000 0.000000 10.000000 
L_Toe1_03 0.000000 0.000000 0.000000 0.000000 0.000000 0.000000 10.000000 
L_Toe2_02 0.000000 0.000000 0.000000 0.000000 0.000000 0.000000 10.000000 
L_Toe2_03 0.000000 0.000000 0.000000 0.000000 0.000000 0.000000 10.000000 
L_Toe3_02 0.000000 0.000000 0.000000 0.000000 0.000000 0.000000 10.000000 
L_Toe3_03 0.000000 0.000000 0.000000 0.000000 0.000000 0.000000 10.000000 
planeLockWeightLeft 0.000000 0.000000 0.000000 0.000000 0.000000 0.000000 10.000000 
R_Leg01 0.000000 0.000000 0.000000 0.000000 0.000000 0.000000 10.000000 
R_Leg02 0.000000 0.000000 0.000000 0.000000 0.000000 0.000000 10.000000 
R_Leg03 0.000000 0.000000 0.000000 0.000000 0.000000 0.000000 10.000000 
R_Foot 0.000000 0.000000 0.000000 0.000000 0.000000 0.000000 10.000000 
planeAlignerRight 0.000000 0.000000 0.000000 0.000000 0.000000 0.000000 10.000000 
R_Toe1_01 0.000000 0.000000 0.000000 0.000000 0.000000 0.000000 10.000000 
R_Toe2_01 0.000000 0.000000 0.000000 0.000000 0.000000 0.000000 10.000000 
R_Toe3_01 0.000000 0.000000 0.000000 0.000000 0.000000 0.000000 10.000000 
planeLockWeightRight 0.000000 0.000000 0.000000 0.000000 0.000000 0.000000 10.000000 
R_Toe1_02 0.000000 0.000000 0.000000 0.000000 0.000000 0.000000 10.000000 
R_Toe1_03 0.000000 0.000000 0.000000 0.000000 0.000000 0.000000 10.000000 
R_Toe2_02 0.000000 0.000000 0.000000 0.000000 0.000000 0.000000 10.000000 
R_Toe2_03 0.000000 0.000000 0.000000 0.000000 0.000000 0.000000 10.000000 
R_Toe3_02 0.000000 0.000000 0.000000 0.000000 0.000000 0.000000 10.000000 
R_Toe3_03 0.000000 0.000000 0.000000 0.000000 0.000000 0.000000 10.000000 
Rear_Leg02 0.000000 0.000000 0.000000 0.000000 0.000000 0.000000 10.000000 
Rear_Leg03 0.000000 0.000000 0.000000 0.000000 0.000000 0.000000 10.000000 
Rear_Leg04 0.000000 0.000000 0.000000 0.000000 0.000000 0.000000 10.000000 
Rear_Foot 0.000000 0.000000 0.000000 0.000000 0.000000 0.000000 10.000000 
planeAlignerCenter 0.000000 0.000000 0.000000 0.000000 0.000000 0.000000 10.000000 
Rear_Toe1_01 0.000000 0.000000 0.000000 0.000000 0.000000 0.000000 10.000000 
Rear_Toe2_01 0.000000 0.000000 0.000000 0.000000 0.000000 0.000000 10.000000 
Rear_Toe3_01 0.000000 0.000000 0.000000 0.000000 0.000000 0.000000 10.000000 
planeLockWeightCenter 0.000000 0.000000 0.000000 0.000000 0.000000 0.000000 10.000000 
Rear_Toe1_02 0.000000 0.000000 0.000000 0.000000 0.000000 0.000000 10.000000 
Rear_Toe1_03 0.000000 0.000000 0.000000 0.000000 0.000000 0.000000 10.000000 
Rear_Toe2_02 0.000000 0.000000 0.000000 0.000000 0.000000 0.000000 10.000000 
Rear_Toe2_03 0.000000 0.000000 0.000000 0.000000 0.000000 0.000000 10.000000 
Rear_Toe3_02 0.000000 0.000000 0.000000 0.000000 0.000000 0.000000 10.000000 
Rear_Toe3_03 0.000000 0.000000 0.000000 0.000000 0.000000 0.000000 10.000000 
Back_Bone 0.000000 0.000000 0.000000 0.000000 0.000000 0.000000 10.000000 
Head 0.000000 0.000000 0.000000 0.000000 0.000000 0.000000 10.000000 
Motor_Bone 0.000000 0.000000 0.000000 0.000000 0.000000 0.000000 10.000000 
Ping_Mechanism 0.000000 0.000000 0.000000 0.000000 0.000000 0.000000 10.000000 
BN_LookIK 0.000000 0.000000 0.000000 0.000000 0.000000 0.000000 10.000000 
bottomMouth 0.000000 0.000000 0.000000 0.000000 0.000000 0.000000 10.000000 
L_Mouth01 0.000000 0.000000 0.000000 0.000000 0.000000 0.000000 10.000000 
L_mouthFront 0.000000 0.000000 0.000000 0.000000 0.000000 0.000000 10.000000 
mouthGun 0.000000 0.000000 0.000000 0.000000 0.000000 0.000000 10.000000 
R_Mouth01 0.000000 0.000000 0.000000 0.000000 0.000000 0.000000 10.000000 
R_mouthFront 0.000000 0.000000 0.000000 0.000000 0.000000 0.000000 10.000000 
TopMouth 0.000000 0.000000 0.000000 0.000000 0.000000 0.000000 10.000000 
weapon_bone 0.000000 0.000000 0.000000 0.000000 0.000000 0.000000 10.000000 
#Beginning of Data. Separated by tabs
#Fr	Tx	Ty	Tz	Rx	Ry	Rz	SF
[Pinger_Root]
89 0.000000 0.000000 0.000000 -0.000069 0.000029 44.999935 0.000000
90 0.000000 0.000000 0.000000 -0.000069 0.000029 44.999935 0.000000
91 0.000000 0.000000 0.000000 -0.000069 0.000029 44.999935 0.000000
[Pelvis]
89 749.224548 350.665771 4026.328125 -111.082077 -81.339867 104.145378 4110.428223
90 692.403564 407.486694 4104.417480 -114.865807 -81.835472 107.910248 4182.309082
91 618.110046 481.779846 4183.083008 -114.511497 -82.459099 107.579498 4255.861328
[L_Hip]
89 5.766392 125.831482 872.656799 160.158691 -45.484913 122.312202 881.701050
90 5.766392 125.831482 872.656799 160.158691 -45.484905 122.312202 881.701050
91 5.766392 125.831482 872.656799 160.158691 -45.484905 122.312202 881.701050
[R_Hip]
89 5.765438 125.836372 -872.654907 38.087841 49.812687 125.703735 881.699829
90 5.765438 125.836372 -872.654907 38.087841 49.812687 125.703735 881.699829
91 5.765438 125.836372 -872.654907 38.087841 49.812687 125.703735 881.699829
[Rear_Leg01]
89 -192.298416 -925.602966 -0.001907 167.415985 -20.530657 -167.508209 945.367432
90 -192.298416 -925.602966 -0.001907 167.357162 -19.636805 -166.761017 945.367432
91 -192.298416 -925.602966 -0.001907 167.496582 -17.954975 -166.020645 945.367432
[Spine1]
89 290.604584 5.007505 0.000477 8.025434 2.114742 18.857843 290.647736
90 290.604584 5.007505 0.000477 7.730655 1.968646 19.069901 290.647736
91 290.604584 5.007505 0.000477 7.581169 1.601409 19.188761 290.647736
[L_Leg01]
89 761.932007 -0.002384 -0.069261 10.157228 -28.794825 18.931278 761.932068
90 761.932007 -0.002384 -0.069261 11.164289 -23.011456 13.566161 761.932068
91 761.932007 -0.002384 -0.069261 12.182127 -21.107697 8.224377 761.932068
[L_Leg02]
89 1441.140503 -0.000954 -0.000715 3.784237 -0.186985 -139.761795 1441.140503
90 1441.140503 -0.000954 -0.000715 3.066519 -0.189756 -133.269440 1441.140503
91 1441.140503 -0.000954 -0.000715 2.583433 -0.186237 -128.816284 1441.140503
[L_Leg03]
89 1686.963989 -0.000715 -0.000954 -0.034294 0.016226 119.382103 1686.963989
90 1686.963989 -0.000715 -0.000954 -0.032125 0.015458 118.749016 1686.963989
91 1686.963989 -0.000715 -0.000954 -0.029947 0.014713 118.115913 1686.963989
[L_Foot]
89 3041.570068 -30.715107 11.297464 6.865063 8.709846 43.962318 3041.746094
90 3041.570068 -30.715107 11.297464 6.854933 9.735478 42.289497 3041.746094
91 3041.570068 -30.715107 11.297464 7.226732 10.631272 42.651714 3041.746094
[L_Toe1_01]
89 -188.216690 -224.732346 -21.137953 92.791924 -6.149182 -161.929047 293.899567
90 -188.216690 -224.732346 -21.137953 92.908989 -6.273962 -163.199097 293.899567
91 -188.216690 -224.732346 -21.137953 93.163216 -6.433516 -165.974915 293.899567
[L_Toe2_01]
89 200.746536 -219.926590 148.838394 -87.293442 -23.351654 -61.297535 332.896027
90 200.746536 -219.926590 148.838394 -87.598953 -23.767000 -60.265343 332.896027
91 200.746536 -219.926590 148.838394 -88.329521 -24.550476 -57.935795 332.896027
[L_Toe3_01]
89 188.832520 -219.859131 -191.078659 -101.180450 12.216244 -77.699936 347.140900
90 188.832520 -219.859131 -191.078659 -101.030571 12.394038 -76.530441 347.140900
91 188.832520 -219.859131 -191.078659 -100.707092 12.885298 -73.869484 347.140900
[planeAlignerLeft]
89 0.812531 -811.448792 -0.314951 0.000000 -90.000000 -90.001900 811.449280
90 0.812531 -811.448792 -0.314951 0.000000 -90.000000 -90.001900 811.449280
91 0.812531 -811.448792 -0.314951 0.000000 -90.000000 -90.001900 811.449280
[L_Toe1_02]
89 413.761139 0.000477 0.000000 0.001397 -24.345701 0.001397 413.761139
90 413.761139 0.000477 0.000000 0.001392 -24.978901 0.001392 413.761139
91 413.761139 0.000477 0.000000 0.001387 -25.612101 0.001387 413.761139
[L_Toe1_03]
89 464.317322 0.000358 -0.000089 0.002647 37.351608 0.002647 464.317322
90 464.317322 0.000358 -0.000089 0.002781 40.077564 0.002781 464.317322
91 464.317322 0.000358 -0.000089 0.003079 45.185093 0.003079 464.317322
[L_Toe2_02]
89 342.235809 -0.000477 0.000238 0.001196 -67.643402 0.001196 342.235809
90 342.235809 -0.000477 0.000238 0.001195 -68.401123 0.001195 342.235809
91 342.235809 -0.000477 0.000238 0.001192 -69.926941 0.001192 342.235809
[L_Toe2_03]
89 420.210846 -0.000715 0.000000 0.008712 74.516571 0.008712 420.210846
90 420.210846 -0.000715 0.000000 0.009714 76.122192 0.009714 420.210846
91 420.210846 -0.000715 0.000000 0.012698 79.394104 0.012698 420.210846
[L_Toe3_02]
89 329.270111 0.000954 0.000000 0.001184 -74.730042 0.001184 329.270111
90 329.270111 0.000954 0.000000 0.001183 -75.710243 0.001183 329.270111
91 329.270111 0.000954 0.000000 0.001181 -77.576180 0.001181 329.270111
[L_Toe3_03]
89 439.137451 -0.001907 0.000954 0.021764 83.817566 0.021764 439.137451
90 439.137451 -0.001907 0.000954 0.036903 86.355026 0.036903 439.137451
91 439.137451 -0.001907 0.000954 -179.958527 88.475693 -179.955032 439.137451
[planeLockWeightLeft]
89 -0.000954 0.000238 -0.000305 -0.011826 -0.004376 0.005620 0.001029
90 -0.000954 0.000238 -0.000305 -0.011826 -0.004376 0.005620 0.001029
91 -0.000954 0.000238 -0.000305 -0.011826 -0.004376 0.005620 0.001029
[R_Leg01]
89 761.455627 -0.001907 -0.000358 127.746918 -26.768402 28.851362 761.455688
90 761.455627 -0.001907 -0.000358 125.983322 -22.856607 31.984102 761.455688
91 761.455627 -0.001907 -0.000358 124.361603 -18.537861 34.021893 761.455688
[R_Leg02]
89 1441.140625 0.000000 -0.000238 -2.701405 -1.021016 -159.485870 1441.140625
90 1441.140625 0.000000 -0.000238 -2.507394 -0.875435 -153.020538 1441.140625
91 1441.140625 0.000000 -0.000238 -2.312737 -0.738498 -146.889572 1441.140625
[R_Leg03]
89 1686.963989 0.000954 0.001431 0.107273 -0.065198 139.781357 1686.963989
90 1686.963989 0.000954 0.001431 0.104631 -0.062844 138.814880 1686.963989
91 1686.963989 0.000954 0.001431 0.102000 -0.060486 137.783752 1686.963989
[R_Foot]
89 3041.560059 -30.531288 -11.204481 -7.102029 -23.765692 74.744469 3041.734131
90 3041.560059 -30.531288 -11.204481 -6.208746 -24.079865 73.103966 3041.734131
91 3041.560059 -30.531288 -11.204481 -4.883551 -24.316040 71.603172 3041.734131
[planeAlignerRight]
89 -0.635147 -812.270569 -0.364304 0.000000 -89.960434 -90.005180 812.270874
90 -0.635147 -812.270569 -0.364304 0.000000 -89.960434 -90.005180 812.270874
91 -0.635147 -812.270569 -0.364304 0.000000 -89.960434 -90.005180 812.270874
[R_Toe1_01]
89 -188.383347 -224.864899 21.052242 76.777283 -0.628583 -173.900604 294.101532
90 -188.383347 -224.864899 21.052242 76.770752 -0.562444 -173.606186 294.101532
91 -188.383347 -224.864899 21.052242 76.764557 -0.496273 -173.311768 294.101532
[R_Toe2_01]
89 200.637817 -220.002121 -148.787384 -91.392952 32.847431 -58.574516 332.857574
90 200.637817 -220.002121 -148.787384 -91.447319 32.855480 -58.665424 332.857574
91 200.637817 -220.002121 -148.787384 -91.501724 32.863457 -58.756340 332.857574
[R_Toe3_01]
89 188.606735 -220.092957 191.126343 -73.222542 -8.394111 -73.040596 347.192566
90 188.606735 -220.092957 191.126343 -73.228195 -8.399281 -73.196083 347.192566
91 188.606735 -220.092957 191.126343 -73.233826 -8.404462 -73.351578 347.192566
[planeLockWeightRight]
89 -0.000477 0.000000 0.000000 -0.011823 -0.004379 -0.000027 0.000477
90 -0.000477 0.000000 0.000000 -0.011823 -0.004379 -0.000027 0.000477
91 -0.000477 0.000000 0.000000 -0.011823 -0.004379 -0.000027 0.000477
[R_Toe1_02]
89 413.762085 0.000477 -0.000119 0.001398 -24.168716 0.001398 413.762085
90 413.762085 0.000477 -0.000119 0.001397 -24.305281 0.001397 413.762085
91 413.762085 0.000477 -0.000119 0.001396 -24.441837 0.001396 413.762085
[R_Toe1_03]
89 464.317810 0.000000 0.001088 0.007511 72.020454 0.007511 464.317810
90 464.317810 0.000000 0.001088 0.007287 71.463028 0.007287 464.317810
91 464.317810 0.000000 0.001088 0.007076 70.905533 0.007076 464.317810
[R_Toe2_02]
89 342.234741 -0.000954 0.000238 0.001198 -66.677345 0.001198 342.234741
90 342.234741 -0.000954 0.000238 0.001198 -66.776421 0.001198 342.234741
91 342.234741 -0.000954 0.000238 0.001198 -66.836601 0.001198 342.234741
[R_Toe2_03]
89 420.210846 0.000715 -0.000268 -0.002227 72.405174 0.000427 420.210846
90 420.210846 0.000715 -0.000268 0.001101 72.649162 0.002870 420.210846
91 420.210846 0.000715 -0.000268 0.004510 72.893188 0.005394 420.210846
[R_Toe3_02]
89 329.270355 -0.000477 -0.000954 0.001185 -74.408974 0.001185 329.270355
90 329.270355 -0.000477 -0.000954 0.001185 -74.429665 0.001185 329.270355
91 329.270355 -0.000477 -0.000954 0.001185 -74.450363 0.001185 329.270355
[R_Toe3_03]
89 439.137939 0.000238 0.001431 -0.010986 82.863281 -0.007482 439.137939
90 439.137939 0.000238 0.001431 -0.011097 82.948013 -0.007593 439.137939
91 439.137939 0.000238 0.001431 -0.011210 83.032806 -0.007707 439.137939
[Rear_Leg02]
89 1162.777710 -0.029802 0.005960 2.000685 -2.196144 -154.868851 1162.777710
90 1162.777710 -0.029802 0.005960 1.861766 -2.319600 -151.138245 1162.777710
91 1162.777710 -0.029802 0.005960 1.697620 -2.444165 -147.009109 1162.777710
[Rear_Leg03]
89 607.192505 -0.013351 -0.073195 0.010213 -0.005643 74.193825 607.192505
90 607.192505 -0.013351 -0.073195 0.010265 -0.005552 73.170456 607.192505
91 607.192505 -0.013351 -0.073195 0.010314 -0.005460 72.146935 607.192505
[Rear_Leg04]
89 995.874512 -0.020504 -0.011921 -0.045374 -0.017594 81.030090 995.874573
90 995.874512 -0.020504 -0.011921 -0.041831 -0.014805 78.382225 995.874573
91 995.874512 -0.020504 -0.011921 -0.041434 -0.015881 75.420326 995.874573
[Rear_Foot]
89 3096.176270 -0.067472 -0.041425 -172.898483 67.725662 10.658043 3096.176270
90 3096.176270 -0.067472 -0.041425 -172.543182 68.867439 11.220119 3096.176270
91 3096.176270 -0.067472 -0.041425 -172.063217 70.227959 12.189285 3096.176270
[planeAlignerCenter]
89 0.350077 0.966311 -838.790894 0.000009 0.000003 -179.999985 838.791565
90 0.350077 0.966311 -838.790894 0.000009 0.000003 -179.999985 838.791565
91 0.350077 0.966311 -838.790894 0.000009 0.000003 -179.999985 838.791565
[Rear_Toe1_01]
89 0.653352 83.966492 -371.173737 0.294354 41.908974 90.410034 380.553192
90 0.653352 83.966492 -371.173737 0.294368 41.908909 90.410065 380.553192
91 0.653352 83.966492 -371.173737 0.294377 41.908852 90.410088 380.553192
[Rear_Toe2_01]
89 178.200760 -294.826019 -362.060547 -7.199395 34.404331 -66.271873 499.765686
90 178.200760 -294.826019 -362.060547 -7.199431 34.404312 -66.271881 499.765686
91 178.200760 -294.826019 -362.060547 -7.199465 34.404293 -66.271889 499.765686
[Rear_Toe3_01]
89 -153.359680 -308.780914 -362.060852 3.290085 33.513115 -112.541878 499.952881
90 -153.359680 -308.780914 -362.060852 3.290091 33.513058 -112.541893 499.952881
91 -153.359680 -308.780914 -362.060852 3.290099 33.513008 -112.541901 499.952881
[planeLockWeightCenter]
89 -0.000062 0.000238 0.000000 -0.011814 -0.004373 -0.000015 0.000246
90 -0.000062 0.000238 0.000000 -0.011814 -0.004373 -0.000015 0.000246
91 -0.000062 0.000238 0.000000 -0.011814 -0.004373 -0.000015 0.000246
[Rear_Toe1_02]
89 379.707825 0.194073 0.000477 -0.000242 -31.680283 0.006934 379.707855
90 379.707825 0.194073 0.000477 -0.000242 -31.680313 0.006934 379.707855
91 379.707825 0.194073 0.000477 -0.000242 -31.680361 0.006934 379.707855
[Rear_Toe1_03]
89 500.129700 0.165701 0.000119 -0.000102 51.913815 0.007296 500.129761
90 500.129700 0.165701 0.000119 -0.000102 51.913956 0.007296 500.129761
91 500.129700 0.165701 0.000119 -0.000102 51.914063 0.007296 500.129761
[Rear_Toe2_02]
89 340.494507 0.000238 -0.000954 0.001192 -69.858673 0.001192 340.494507
90 340.494507 0.000238 -0.000954 0.001192 -69.858711 0.001192 340.494507
91 340.494507 0.000238 -0.000954 0.001192 -69.858765 0.001192 340.494507
[Rear_Toe2_03]
89 433.103577 0.000000 0.000238 0.006697 69.814468 0.006697 433.103546
90 433.103577 0.000000 0.000238 0.006697 69.814522 0.006697 433.103546
91 433.103577 0.000000 0.000238 0.006697 69.814552 0.006697 433.103546
[Rear_Toe3_02]
89 340.494141 -0.000358 -0.000477 0.008289 -67.278793 -0.009462 340.494171
90 340.494141 -0.000358 -0.000477 0.008289 -67.278816 -0.009462 340.494171
91 340.494141 -0.000358 -0.000477 0.008289 -67.278877 -0.009462 340.494171
[Rear_Toe3_03]
89 433.103577 0.001431 -0.000238 -0.000972 65.958961 -0.004547 433.103546
90 433.103577 0.001431 -0.000238 -0.000972 65.959007 -0.004547 433.103546
91 433.103577 0.001431 -0.000238 -0.000972 65.958984 -0.004547 433.103546
[Back_Bone]
89 1312.175781 -701.934692 0.000954 0.000023 -0.000007 -85.606667 1488.125488
90 1312.175781 -701.934692 0.000954 0.000023 -0.000007 -85.606667 1488.125488
91 1312.175781 -701.934692 0.000954 0.000023 -0.000007 -85.606667 1488.125488
[Head]
89 1406.159424 809.709290 0.001431 0.000625 -1.475623 7.768025 1622.625488
90 1406.159424 809.709290 0.001431 0.000625 -1.475623 7.768025 1622.625488
91 1406.159424 809.709290 0.001431 0.000625 -1.475624 7.768028 1622.625488
[Motor_Bone]
89 1158.364380 -417.834747 0.000477 -0.119161 0.064310 -105.915703 1231.419434
90 1158.364380 -417.834747 0.000477 -0.118567 0.064605 -105.915703 1231.419434
91 1158.364380 -417.834747 0.000477 -0.117972 0.064900 -105.915688 1231.419434
[Ping_Mechanism]
89 1234.021973 -441.125061 0.330825 0.000103 -0.000053 82.120995 1310.496704
90 1234.003784 -441.167725 0.282257 0.000103 -0.000053 82.120995 1310.493896
91 1233.985718 -441.210327 0.233690 0.000103 -0.000053 82.120995 1310.491211
[BN_LookIK]
89 193.241119 1380.371704 -0.002861 0.000000 89.965736 -31.038179 1393.832153
90 193.241119 1380.371704 -0.002861 0.000000 89.965736 -31.038179 1393.832153
91 193.241119 1380.371704 -0.002861 0.000000 89.965736 -31.038179 1393.832153
[bottomMouth]
89 -435.092926 615.759399 -0.000954 -0.000022 0.000016 73.527184 753.966492
90 -435.092926 615.759399 -0.000954 -0.000022 0.000016 73.527184 753.966492
91 -435.092926 615.759399 -0.000954 -0.000022 0.000016 73.527184 753.966492
[L_Mouth01]
89 554.440979 7.658243 838.222046 150.204178 23.759130 109.605339 1005.027161
90 554.440979 7.658243 838.222046 150.204178 23.759130 109.605339 1005.027161
91 554.440979 7.658243 838.222046 150.204178 23.759130 109.605339 1005.027161
[L_mouthFront]
89 551.629089 934.514771 339.150421 0.000081 2.804060 79.119301 1136.941284
90 551.629089 934.514771 339.150421 0.000081 2.804060 79.119301 1136.941284
91 551.629089 934.514771 339.150421 0.000081 2.804060 79.119301 1136.941284
[mouthGun]
89 55.332661 1627.420898 0.000000 0.000023 0.000009 -11.038128 1628.361328
90 55.332661 1627.420898 0.000000 0.000023 0.000009 -11.038128 1628.361328
91 55.332661 1627.420898 0.000000 0.000023 0.000009 -11.038128 1628.361328
[R_Mouth01]
89 554.442383 7.659197 -838.223938 29.795891 -23.759109 109.605331 1005.029541
90 554.442383 7.659197 -838.223938 29.795891 -23.759109 109.605331 1005.029541
91 554.442383 7.659197 -838.223938 29.795891 -23.759109 109.605331 1005.029541
[R_mouthFront]
89 551.629089 934.514282 -339.151367 0.000029 -2.803930 79.119133 1136.941162
90 551.629089 934.514282 -339.151367 0.000029 -2.803930 79.119133 1136.941162
91 551.629089 934.514282 -339.151367 0.000029 -2.803930 79.119133 1136.941162
[TopMouth]
89 461.269867 -56.106091 -0.008583 -0.000059 -0.000268 92.025169 464.669525
90 461.269867 -56.106091 -0.008583 -0.000059 -0.000268 92.025169 464.669525
91 461.269867 -56.106091 -0.008583 -0.000059 -0.000268 92.025169 464.669525
[weapon_bone]
89 -987.239868 1448.372803 0.001431 0.000000 89.965736 -31.038221 1752.833740
90 -987.239868 1448.372803 0.001431 0.000000 89.965736 -31.038221 1752.833740
91 -987.239868 1448.372803 0.001431 0.000000 89.965736 -31.038221 1752.833740
